<?xml version="1.0" encoding="UTF-8" standalone="no"?>
<!-- Created with Inkscape (http://www.inkscape.org/) -->

<svg
   width="210mm"
   height="297mm"
   viewBox="0 0 210 297"
   version="1.1"
   id="svg1"
   xml:space="preserve"
   inkscape:export-filename="header-bg.svg"
   inkscape:export-xdpi="96"
   inkscape:export-ydpi="96"
   xmlns:inkscape="http://www.inkscape.org/namespaces/inkscape"
   xmlns:sodipodi="http://sodipodi.sourceforge.net/DTD/sodipodi-0.dtd"
   xmlns="http://www.w3.org/2000/svg"
   xmlns:svg="http://www.w3.org/2000/svg"><sodipodi:namedview
     id="namedview1"
     pagecolor="#ffffff"
     bordercolor="#000000"
     borderopacity="0.25"
     inkscape:showpageshadow="2"
     inkscape:pageopacity="0.0"
     inkscape:pagecheckerboard="0"
     inkscape:deskcolor="#d1d1d1"
     inkscape:document-units="mm"
     inkscape:zoom="1.0449705"
     inkscape:cx="478.96087"
     inkscape:cy="624.41952"
     inkscape:window-width="2560"
     inkscape:window-height="1369"
     inkscape:window-x="-8"
     inkscape:window-y="-8"
     inkscape:window-maximized="1"
     inkscape:current-layer="layer1" /><defs
     id="defs1" /><g
     inkscape:label="Layer 1"
     inkscape:groupmode="layer"
     id="layer1"><path
       style="fill:#ffffff;fill-opacity:1;stroke-width:0.264583"
       d="m 103.30435,43.549871 c 21.62952,0.155442 49.83428,9.509304 62.88235,25.335051 13.04806,15.825747 6.71039,40.767688 8.01279,56.447558 1.3024,15.67987 12.43741,30.28419 12.34784,44.33273 -0.0896,14.04854 -6.45558,32.95386 -19.94375,47.07136 -13.48817,14.1175 -35.64254,27.17848 -57.1637,24.48595 C 87.918711,238.52998 84.985198,215.10635 68.616366,204.83632 52.247534,194.56629 19.473985,198.67297 12.406649,181.0358 5.3393132,163.39863 25.132231,150.38887 33.421994,132.42199 41.711757,114.45511 27.325586,76.415932 46.78263,61.020459 66.239675,45.624986 81.67483,43.394429 103.30435,43.549871 Z"
       id="path1"
       sodipodi:nodetypes="zzzzzzzzzzz" /></g></svg>
